<?xml version="1.0" encoding="UTF-8"?>
<svg width="1214px" height="866px" viewBox="0 0 1214 866" version="1.1" xmlns="http://www.w3.org/2000/svg" xmlns:xlink="http://www.w3.org/1999/xlink">
    <!-- Generator: Sketch 51.2 (57519) - http://www.bohemiancoding.com/sketch -->
    <title>birthday</title>
    <desc>Created with Sketch.</desc>
    <defs></defs>
    <g id="birthday" stroke="none" stroke-width="1" fill="none" fill-rule="evenodd">
        <polygon id="Page-1" fill="#204056" points="-1 866 1214 866 1214 0 -1 0"></polygon>
        <rect id="Rectangle-2" fill="#162530" fill-rule="nonzero" x="523" y="676" width="43" height="190"></rect>
        <rect id="Rectangle-2-Copy" fill="#162530" fill-rule="nonzero" x="791" y="653" width="43" height="213"></rect>
        <rect id="Rectangle-2-Copy-2" fill="#162530" fill-rule="nonzero" x="643" y="665" width="43" height="213"></rect>
        <rect id="Rectangle-2-Copy-3" fill="#162530" fill-rule="nonzero" x="376" y="653" width="43" height="213"></rect>
        <g id="Group" transform="translate(326.000000, 38.000000)" fill-rule="nonzero">
            <path d="M69.2142857,171 C107.44028,171 138.428571,107.44028 138.428571,69.2142857 C138.428571,30.9882912 107.44028,0 69.2142857,0 C30.9882912,0 0,30.9882912 0,69.2142857 C0,107.44028 30.9882912,171 69.2142857,171 Z" id="Oval-5" fill="#162530"></path>
            <path d="M69.7109375,162.539062 C69.7109375,197.125 71.4486057,231.754617 69.7109375,266.296875 C64.521245,369.460238 42.220591,473.61238 65.921875,576.351562" id="Path-3" stroke="#162530" stroke-width="3"></path>
        </g>
        <g id="Group-Copy" transform="translate(234.000000, -44.000000)" fill-rule="nonzero">
            <path d="M69.2142857,171 C107.44028,171 138.428571,107.44028 138.428571,69.2142857 C138.428571,30.9882912 107.44028,0 69.2142857,0 C30.9882912,0 0,30.9882912 0,69.2142857 C0,107.44028 30.9882912,171 69.2142857,171 Z" id="Oval-5" fill="#162530"></path>
            <path d="M69.7109375,162.539062 C69.7109375,197.125 71.4486057,231.754617 69.7109375,266.296875 C64.521245,369.460238 42.220591,473.61238 65.921875,576.351562" id="Path-3" stroke="#162530" stroke-width="3"></path>
        </g>
        <g id="Group-Copy-2" transform="translate(607.000000, -19.000000)" fill-rule="nonzero">
            <path d="M69.2142857,171 C107.44028,171 138.428571,107.44028 138.428571,69.2142857 C138.428571,30.9882912 107.44028,0 69.2142857,0 C30.9882912,0 0,30.9882912 0,69.2142857 C0,107.44028 30.9882912,171 69.2142857,171 Z" id="Oval-5" fill="#162530"></path>
            <path d="M69.7109375,162.539062 C69.7109375,197.125 71.4486057,231.754617 69.7109375,266.296875 C64.521245,369.460238 42.220591,473.61238 65.921875,576.351562" id="Path-3" stroke="#162530" stroke-width="3"></path>
        </g>
        <g id="Group-Copy-5" transform="translate(864.000000, -144.000000)" fill-rule="nonzero">
            <path d="M69.2142857,171 C107.44028,171 138.428571,107.44028 138.428571,69.2142857 C138.428571,30.9882912 107.44028,0 69.2142857,0 C30.9882912,0 0,30.9882912 0,69.2142857 C0,107.44028 30.9882912,171 69.2142857,171 Z" id="Oval-5" fill="#162530"></path>
            <path d="M69.7109375,162.539062 C69.7109375,197.125 71.4486057,231.754617 69.7109375,266.296875 C64.521245,369.460238 42.220591,473.61238 65.921875,576.351562" id="Path-3" stroke="#162530" stroke-width="3"></path>
        </g>
        <g id="Group-Copy-6" transform="translate(1014.000000, -79.000000)" fill-rule="nonzero">
            <path d="M69.2142857,171 C107.44028,171 138.428571,107.44028 138.428571,69.2142857 C138.428571,30.9882912 107.44028,0 69.2142857,0 C30.9882912,0 0,30.9882912 0,69.2142857 C0,107.44028 30.9882912,171 69.2142857,171 Z" id="Oval-5" fill="#162530"></path>
            <path d="M69.7109375,162.539062 C69.7109375,197.125 71.4486057,231.754617 69.7109375,266.296875 C64.521245,369.460238 42.220591,473.61238 65.921875,576.351562" id="Path-3" stroke="#162530" stroke-width="3"></path>
        </g>
        <g id="Group-Copy-7" transform="translate(-1.000000, -112.000000)" fill-rule="nonzero">
            <path d="M69.2142857,171 C107.44028,171 138.428571,107.44028 138.428571,69.2142857 C138.428571,30.9882912 107.44028,0 69.2142857,0 C30.9882912,0 0,30.9882912 0,69.2142857 C0,107.44028 30.9882912,171 69.2142857,171 Z" id="Oval-5" fill="#162530"></path>
            <path d="M69.7109375,162.539062 C69.7109375,197.125 71.4486057,231.754617 69.7109375,266.296875 C64.521245,369.460238 42.220591,473.61238 65.921875,576.351562" id="Path-3" stroke="#162530" stroke-width="3"></path>
        </g>
        <g id="Group-Copy-8" transform="translate(454.000000, -94.000000)" fill-rule="nonzero">
            <path d="M69.2142857,171 C107.44028,171 138.428571,107.44028 138.428571,69.2142857 C138.428571,30.9882912 107.44028,0 69.2142857,0 C30.9882912,0 0,30.9882912 0,69.2142857 C0,107.44028 30.9882912,171 69.2142857,171 Z" id="Oval-5" fill="#162530"></path>
            <path d="M69.7109375,162.539062 C69.7109375,197.125 71.4486057,231.754617 69.7109375,266.296875 C64.521245,369.460238 42.220591,473.61238 65.921875,576.351562" id="Path-3" stroke="#162530" stroke-width="3"></path>
        </g>
        <g id="Group-Copy-3" transform="translate(815.500000, 498.500000) scale(-1, 1) translate(-815.500000, -498.500000) translate(746.000000, 210.000000)" fill-rule="nonzero">
            <path d="M69.2142857,171 C107.44028,171 138.428571,107.44028 138.428571,69.2142857 C138.428571,30.9882912 107.44028,0 69.2142857,0 C30.9882912,0 0,30.9882912 0,69.2142857 C0,107.44028 30.9882912,171 69.2142857,171 Z" id="Oval-5" fill="#162530"></path>
            <path d="M69.7109375,162.539062 C69.7109375,197.125 71.4486057,231.754617 69.7109375,266.296875 C64.521245,369.460238 42.220591,473.61238 65.921875,576.351562" id="Path-3" stroke="#162530" stroke-width="3"></path>
        </g>
        <g id="Group-Copy-9" transform="translate(909.500000, 589.500000) scale(-1, 1) translate(-909.500000, -589.500000) translate(840.000000, 301.000000)" fill-rule="nonzero">
            <path d="M69.2142857,171 C107.44028,171 138.428571,107.44028 138.428571,69.2142857 C138.428571,30.9882912 107.44028,0 69.2142857,0 C30.9882912,0 0,30.9882912 0,69.2142857 C0,107.44028 30.9882912,171 69.2142857,171 Z" id="Oval-5" fill="#162530"></path>
            <path d="M69.7109375,162.539062 C69.7109375,197.125 71.4486057,231.754617 69.7109375,266.296875 C64.521245,369.460238 42.220591,473.61238 65.921875,576.351562" id="Path-3" stroke="#162530" stroke-width="3"></path>
        </g>
        <g id="Group-Copy-4" transform="translate(183.500000, 406.500000) scale(-1, 1) translate(-183.500000, -406.500000) translate(114.000000, 118.000000)" fill-rule="nonzero">
            <path d="M69.2142857,171 C107.44028,171 138.428571,107.44028 138.428571,69.2142857 C138.428571,30.9882912 107.44028,0 69.2142857,0 C30.9882912,0 0,30.9882912 0,69.2142857 C0,107.44028 30.9882912,171 69.2142857,171 Z" id="Oval-5" fill="#162530"></path>
            <path d="M69.7109375,162.539062 C69.7109375,197.125 71.4486057,231.754617 69.7109375,266.296875 C64.521245,369.460238 42.220591,473.61238 65.921875,576.351562" id="Path-3" stroke="#162530" stroke-width="3"></path>
        </g>
        <ellipse id="Oval-6" fill="#162530" fill-rule="nonzero" cx="607.5" cy="643.5" rx="286.5" ry="82.5"></ellipse>
        <path d="M607.5,760 C765.729581,760 898,723.063492 898,677.5 C898,669.031281 902.231278,648.222133 894,640.53125 C857.945266,606.843561 736.320031,595 607.5,595 C481.226408,595 359.147132,607.872081 321,640.53125 C311.346126,648.796288 317,668.298014 317,677.5 C317,723.063492 449.270419,760 607.5,760 Z" id="Oval-6-Copy" fill="#162530" fill-rule="nonzero"></path>
        <g id="Group-2" transform="translate(473.000000, 288.000000)" fill-rule="nonzero">
            <path d="M133.401365,389.68999 C207.076905,389.68999 266.80273,365.215212 266.80273,350.668189 C266.80273,336.121165 207.076905,337.010558 133.401365,337.010558 C59.7258255,337.010558 0,336.121165 0,350.668189 C0,365.215212 59.7258255,389.68999 133.401365,389.68999 Z" id="Oval-4" fill="#000000"></path>
            <path d="M133.195458,380.305932 C203.11683,380.305932 259.799301,364.204332 259.799301,333.572969 C259.799301,214.649529 276.441281,178 133.195458,178 C-10.0503649,178 6.59161473,214.649529 6.59161473,333.572969 C6.59161473,364.204332 63.2740861,380.305932 133.195458,380.305932 Z" id="Oval-3" fill="#FFF4CF"></path>
            <path d="M6.13070747,290.896606 C4.97738259,205.660591 8.75015934,178 133.195458,178 C242.15669,178 258.606488,199.205498 260.238964,261.69665 C259.628387,260.450367 258.880382,259.741477 257.940678,259.741477 C248.128118,259.741477 254.845715,289.147538 254.845715,298.457927 C254.845715,307.768317 256.285928,320.10193 248.128118,320.10193 C239.970307,320.10193 242.979252,304.390138 242.979252,298.457927 C242.979252,292.525716 240.117185,284.64126 234.209453,289.147538 C228.301721,293.653815 234.639885,320.10193 223.673046,320.10193 C212.706207,320.10193 214.317777,303.910747 214.317777,289.147538 C214.317777,274.384328 202.208559,274.384328 200.780585,284.64126 C199.352612,294.898192 202.208559,324.50009 193.324522,324.50009 C184.440485,324.50009 185.591024,311.93188 185.591024,301.385274 C185.591024,290.838667 185.591024,279.969746 175.219854,279.969746 C161.439907,279.969746 175.640086,332.643621 161.439907,332.643621 C147.239727,332.643621 152.916943,311.93188 150.199713,308.190589 C147.482482,304.449297 142.068422,302.158419 139.051317,308.190589 C136.034212,314.222758 138.939119,324.50009 130.365156,324.50009 C121.791193,324.50009 121.354641,315.057103 121.354641,308.190589 C121.354641,301.324075 120.740612,298.457927 114.89204,298.457927 C109.043467,298.457927 113.500785,320.10193 104.904383,320.10193 C96.3079802,320.10193 97.3810005,305.053126 97.3810005,293.015307 C97.3810005,280.977488 93.2296766,274.384328 88.1970889,274.384328 C83.1645011,274.384328 77.0201337,277.455492 75.6737584,289.147538 C74.3273831,300.839584 77.0201337,315.057103 64.6803999,315.057103 C52.340666,315.057103 55.2516927,295.04507 55.2516927,284.64126 C55.2516927,274.237451 56.5348291,265.353414 44.0890172,265.353414 C31.6432053,265.353414 44.2930135,328.86153 30.4233077,328.86153 C16.5536019,328.86153 18.3956881,307.821356 18.3956881,298.457927 C18.3956881,289.094499 11.8433282,283.105169 7.11061496,289.147538 C6.70973258,289.659354 6.38937995,290.247938 6.13070754,290.896614 Z" id="Combined-Shape" fill="#EF95EF"></path>
            <path d="M133.269719,237.695789 C187.839867,237.695789 232.077713,225.861039 232.077713,203.346847 C232.077713,115.937572 245.065949,89 133.269719,89 C21.4734897,89 34.4617258,115.937572 34.4617258,203.346847 C34.4617258,225.861039 78.6995714,237.695789 133.269719,237.695789 Z" id="Oval-3-Copy-2" fill="#FFF4CF"></path>
            <path d="M35,144.059236 C37.4129102,103.113786 52.9553828,89 133.877958,89 C223.196901,89 232.864454,106.194569 233.141309,157.68529 C230.41524,152.130917 223.789312,153.484218 222.831488,159.963515 C221.620791,168.153395 224.042185,191.789701 216.50992,191.789701 C208.977656,191.789701 209.953132,181.754329 209.953132,173.333152 C209.953132,164.911975 209.953132,156.233439 201.160013,156.233439 C189.476787,156.233439 201.516304,198.292088 189.476787,198.292088 C177.437271,198.292088 182.250656,181.754329 179.946873,178.76701 C177.64309,175.779691 173.052819,173.950488 170.494789,178.76701 C167.936759,183.583533 170.399663,191.789701 163.130293,191.789701 C155.860922,191.789701 155.490795,184.249734 155.490795,178.76701 C155.490795,173.284287 154.970195,170.995746 150.011527,170.995746 C145.052858,170.995746 148.831962,188.277891 141.543566,188.277891 C134.255171,188.277891 135.164923,176.261832 135.164923,166.649963 C135.164923,157.038093 131.645254,151.773635 127.378412,151.773635 C123.11157,151.773635 117.902115,154.225876 116.7606,163.561655 C115.619086,172.897434 117.902115,184.249734 107.439963,184.249734 C96.9778125,184.249734 99.4459046,168.270673 99.4459046,159.963515 C99.4459046,151.656358 100.533802,144.562697 89.9817138,144.562697 C79.4296253,144.562697 90.1546705,195.272192 78.3953442,195.272192 C66.6360179,195.272192 68.1978169,178.472188 68.1978169,170.995746 C68.1978169,163.519304 62.6424476,158.736988 58.629852,163.561655 C54.6172565,168.386321 60.1207388,181.754329 48.8439617,181.754329 C37.5671846,181.754329 46.9578641,155.508599 36.6842359,144.562697 C36.0372706,144.252063 35.4800041,144.090641 35,144.059236 Z" id="Combined-Shape-Copy" fill="#EF95EF"></path>
            <path d="M133.454549,129.8265 C167.78681,129.8265 195.618607,122.199635 195.618607,107.69044 C195.618607,51.3598275 203.790026,34 133.454549,34 C63.1190716,34 71.2904902,51.3598275 71.2904902,107.69044 C71.2904902,122.199635 99.1222872,129.8265 133.454549,129.8265 Z" id="Oval-3-Copy-3" fill="#FFF4CF"></path>
            <path d="M71.0000001,77.921147 C71.2147535,45.0046103 77.4483914,34 133.448526,34 C184.050901,34 194.018232,42.9854191 195.628016,69.0038023 C195.459659,68.9956043 195.287294,68.9914557 195.110825,68.9914557 C185.027757,68.9914557 195.418318,106.172786 185.027757,106.172786 C174.637197,106.172786 178.791331,91.5528238 176.803079,88.9119284 C174.814826,86.271033 170.853248,84.6539526 168.645571,88.9119284 C166.437894,93.1699043 168.563473,100.424447 162.28973,100.424447 C156.015987,100.424447 155.696554,93.7588499 155.696554,88.9119284 C155.696554,84.065007 155.247256,82.0418565 150.967737,82.0418565 C146.688217,82.0418565 149.949727,97.3198828 143.659565,97.3198828 C137.369402,97.3198828 138.154553,86.6972626 138.154553,78.2000304 C138.154553,69.7027983 135.116945,65.0488321 131.434498,65.0488321 C127.752051,65.0488321 123.256093,67.2166991 122.270923,75.4698572 C121.285752,83.7230154 123.256093,93.7588499 114.226859,93.7588499 C105.197624,93.7588499 107.327682,79.6327954 107.327682,72.288975 C107.327682,64.9451546 108.266579,58.674108 99.1597253,58.674108 C90.0528716,58.674108 99.3089935,103.503092 89.1602477,103.503092 C79.0115019,103.503092 80.3593939,88.6512948 80.3593939,82.0418565 C80.3593939,75.4324181 75.5648989,71.2046815 72.1018763,75.4698572 C71.5659034,76.1299797 71.226657,76.9710163 71,77.9211543 Z" id="Combined-Shape-Copy-2" fill="#EF95EF"></path>
            <rect id="Rectangle" fill="#8CEAC2" x="108" y="14" width="8" height="35" rx="3"></rect>
            <rect id="Rectangle-Copy" fill="#8CEAC2" x="130" y="14" width="8" height="35" rx="3"></rect>
            <path d="M112,13 C114.209139,13 116,11.2539105 116,9.1 C116,6.94608948 114.209139,0 112,0 C109.790861,0 108,6.94608948 108,9.1 C108,11.2539105 109.790861,13 112,13 Z" id="Oval" fill="#F5A623"></path>
            <path d="M134,13 C136.209139,13 138,11.2539105 138,9.1 C138,6.94608948 136.209139,0 134,0 C131.790861,0 130,6.94608948 130,9.1 C130,11.2539105 131.790861,13 134,13 Z" id="Oval-Copy" fill="#F5A623"></path>
            <rect id="Rectangle-Copy-2" fill="#8CEAC2" x="153" y="14" width="8" height="35" rx="3"></rect>
            <path d="M157,13 C159.209139,13 161,11.2539105 161,9.1 C161,6.94608948 159.209139,0 157,0 C154.790861,0 153,6.94608948 153,9.1 C153,11.2539105 154.790861,13 157,13 Z" id="Oval-Copy-2" fill="#F5A623"></path>
        </g>
        <g id="Group-3" transform="translate(622.000000, 2.000000)" fill="#000000" fill-rule="nonzero">
            <polygon id="Triangle" points="334.5 223 291 109 378 109"></polygon>
            <polygon id="Triangle-Copy" transform="translate(234.770459, 153.316401) rotate(-345.000000) translate(-234.770459, -153.316401) " points="234.770459 210.316401 191.270459 96.3164006 278.270459 96.3164006"></polygon>
            <polygon id="Triangle-Copy-2" transform="translate(433.770459, 153.316401) rotate(-15.000000) translate(-433.770459, -153.316401) " points="433.770459 210.316401 390.270459 96.3164006 477.270459 96.3164006"></polygon>
            <polygon id="Triangle-Copy-3" transform="translate(526.172105, 115.113448) rotate(-30.000000) translate(-526.172105, -115.113448) " points="526.172105 172.113448 482.672105 58.113448 569.672105 58.113448"></polygon>
            <polygon id="Triangle-Copy-6" transform="translate(600.172105, 72.113448) rotate(-30.000000) translate(-600.172105, -72.113448) " points="600.172105 129.113448 556.672105 15.113448 643.672105 15.113448"></polygon>
            <polygon id="Triangle-Copy-4" transform="translate(141.172105, 114.113448) scale(-1, 1) rotate(-30.000000) translate(-141.172105, -114.113448) " points="141.172105 171.113448 97.6721051 57.113448 184.672105 57.113448"></polygon>
            <polygon id="Triangle-Copy-5" transform="translate(66.172105, 71.113448) scale(-1, 1) rotate(-30.000000) translate(-66.172105, -71.113448) " points="66.1721051 128.113448 22.6721051 14.113448 109.672105 14.113448"></polygon>
        </g>
    </g>
</svg>