<?xml version="1.0" encoding="UTF-8"?>
<svg width="1214px" height="866px" viewBox="0 0 1214 866" version="1.1" xmlns="http://www.w3.org/2000/svg" xmlns:xlink="http://www.w3.org/1999/xlink">
    <!-- Generator: Sketch 51.2 (57519) - http://www.bohemiancoding.com/sketch -->
    <title>variable boxes</title>
    <desc>Created with Sketch.</desc>
    <defs/>
    <g id="variable-boxes" stroke="none" stroke-width="1" fill="none" fill-rule="evenodd">
        <g id="blue_box" transform="translate(244.000000, 365.000000)">
            <rect id="Rectangle-path" x="0" y="16.71252" width="176" height="176.4"/>
            <g id="Group" transform="translate(4.911111, 0.000000)" fill-rule="nonzero">
                <polygon id="Shape" fill="#F5A623" points="165.327822 45.99688 102.630756 16.6988 86.5013333 44.85616 149.194489 74.15228"/>
                <polygon id="Shape" fill="#F5A623" points="149.194489 80.51248 86.5013333 109.8086 102.630756 137.964 146.454756 117.48592 153.678578 114.1108 153.676622 114.1108 165.327822 108.66788"/>
                <polygon id="Shape" fill="#FFD976" points="85.5098667 117.825 85.5098667 193.12428 147.759111 164.03004 147.759111 122.23108 100.647822 144.2458"/>
                <polygon id="Shape" fill="#FFD976" points="18.4128 122.22716 18.4128 164.03004 80.664 193.12428 80.664 117.83284 65.5299556 144.2458"/>
                <polygon id="Shape" fill="#F5A623" points="79.6784 44.85616 63.5470222 16.6988 0.849955556 45.99688 16.9832889 74.15228"/>
                <path d="M83.0869333,80.30668 C81.7493333,80.30668 80.6659556,81.39448 80.6659556,82.73316 L80.6659556,93.45436 C80.6679111,94.795 81.7532444,95.88084 83.0888889,95.88084 C84.4245333,95.88084 85.5079111,94.79304 85.5079111,93.45436 L85.5079111,82.73316 C85.5079111,81.39448 84.4245333,80.30668 83.0869333,80.30668 Z" id="Shape" fill="#FFFFFF"/>
                <path d="M83.0869333,74.43648 C84.4245333,74.43648 85.5059556,73.35064 85.5059556,72.01 L85.5059556,61.28684 C85.5059556,59.9462 84.4206222,58.86036 83.0849778,58.86036 C81.7473778,58.86036 80.6659556,59.9462 80.6659556,61.28684 L80.6659556,72.01 C80.6659556,73.35064 81.7493333,74.43648 83.0869333,74.43648 Z" id="Shape" fill="#FFFFFF"/>
                <path d="M83.0869333,54.8345218 C84.4245333,54.8345218 85.5059556,53.7486818 85.5059556,52.4080418 L85.5059556,41.6848818 C85.5059556,40.3442418 84.4206222,39.2584018 83.0849778,39.2584018 C81.7473778,39.2584018 80.6659556,40.3442418 80.6659556,41.6848818 L80.6659556,52.4080418 C80.6659556,53.7486818 81.7493333,54.8345218 83.0869333,54.8345218 Z" id="Shape" fill="#FFFFFF"/>
                <path d="M83.0869333,35.2345218 C84.4245333,35.2345218 85.5059556,34.1486818 85.5059556,32.8080418 L85.5059556,22.0848818 C85.5059556,20.7442418 84.4206222,19.6584018 83.0849778,19.6584018 C81.7473778,19.6584018 80.6659556,20.7442418 80.6659556,22.0848818 L80.6659556,32.8080418 C80.6659556,34.1486818 81.7493333,35.2345218 83.0869333,35.2345218 Z" id="Shape" fill="#FFFFFF"/>
                <path d="M83.0869333,15.6345218 C84.4245333,15.6345218 85.5059556,14.5486818 85.5059556,13.2080418 L85.5059556,2.48488179 C85.5059556,1.14424179 84.4206222,0.0584017944 83.0849778,0.0584017944 C81.7473778,0.0584017944 80.6659556,1.14424179 80.6659556,2.48488179 L80.6659556,13.2080418 C80.6659556,14.5486818 81.7493333,15.6345218 83.0869333,15.6345218 Z" id="Shape" fill="#FFFFFF"/>
                <polygon id="Shape" fill="#F5A623" points="63.5470222 137.964 79.6764444 109.81252 16.9832889 80.51444 0.849955556 108.66788 16.5276444 115.99436 16.5296 115.99436 18.4128 116.87636"/>
            </g>
        </g>
        <rect id="Rectangle-path" x="525" y="382" width="176" height="176"/>
        <polygon id="Shape" fill="#63A318" fill-rule="nonzero" points="696.019469 411.303208 633.16891 382 617 410.162289 679.846639 439.463536"/>
        <polygon id="Shape" fill="#63A318" fill-rule="nonzero" points="679.846639 447 617 476.301248 633.16891 504.461576 677.100198 483.979912 684.341705 480.604201 684.339745 480.604201 696.019469 475.160328"/>
        <polygon id="Shape" fill="#B8E986" fill-rule="nonzero" points="617 484 617 559.31246 679.401641 530.213128 679.401641 488.406851 632.175016 510.425425"/>
        <polygon id="Shape" fill="#B8E986" fill-rule="nonzero" points="548 488.395089 548 530.205286 610.403601 559.304619 610.403601 484 595.232506 510.417583"/>
        <polygon id="Shape" fill="#63A318" fill-rule="nonzero" points="610.021429 410.162289 593.850559 382 531 411.303208 547.17283 439.463536"/>
        <path d="M613.426905,445 C612.08603,445 611,446.08799 611,447.426905 L611,458.149981 C611.00196,459.490856 612.089951,460.576886 613.428865,460.576886 C614.767779,460.576886 615.853809,459.488896 615.853809,458.149981 L615.853809,447.426905 C615.853809,446.08799 614.767779,445 613.426905,445 Z" id="Shape" fill="#FFFFFF" fill-rule="nonzero"/>
        <path d="M613.426905,440.578846 C614.767779,440.578846 615.851849,439.492816 615.851849,438.151942 L615.851849,427.426905 C615.851849,426.08603 614.763859,425 613.424944,425 C612.08407,425 611,426.08603 611,427.426905 L611,438.151942 C611,439.492816 612.08603,440.578846 613.426905,440.578846 Z" id="Shape" fill="#FFFFFF" fill-rule="nonzero"/>
        <path d="M613.426905,421.578846 C614.767779,421.578846 615.851849,420.492816 615.851849,419.151942 L615.851849,408.426905 C615.851849,407.08603 614.763859,406 613.424944,406 C612.08407,406 611,407.08603 611,408.426905 L611,419.151942 C611,420.492816 612.08603,421.578846 613.426905,421.578846 Z" id="Shape" fill="#FFFFFF" fill-rule="nonzero"/>
        <path d="M613.426905,401.578846 C614.767779,401.578846 615.851849,400.492816 615.851849,399.151942 L615.851849,388.426905 C615.851849,387.08603 614.763859,386 613.424944,386 C612.08407,386 611,387.08603 611,388.426905 L611,399.151942 C611,400.492816 612.08603,401.578846 613.426905,401.578846 Z" id="Shape" fill="#FFFFFF" fill-rule="nonzero"/>
        <path d="M613.426905,381.578846 C614.767779,381.578846 615.851849,380.492816 615.851849,379.151942 L615.851849,368.426905 C615.851849,367.08603 614.763859,366 613.424944,366 C612.08407,366 611,367.08603 611,368.426905 L611,379.151942 C611,380.492816 612.08603,381.578846 613.426905,381.578846 Z" id="Shape" fill="#FFFFFF" fill-rule="nonzero"/>
        <polygon id="Shape" fill="#63A318" fill-rule="nonzero" points="593.850559 504.459616 610.019469 476.303208 547.17283 447 531 475.158368 546.71607 482.48613 546.718031 482.48613 548.605841 483.368285"/>
        <g id="yellow_box" transform="translate(801.000000, 365.000000)">
            <rect id="Rectangle-path" x="0" y="16.71252" width="176" height="176.4"/>
            <g id="Group" transform="translate(4.911111, 0.000000)" fill-rule="nonzero">
                <polygon id="Shape" fill="#4C7EF3" points="165.327822 45.99688 102.630756 16.6988 86.5013333 44.85616 149.194489 74.15228"/>
                <polygon id="Shape" fill="#4C7EF3" points="149.194489 80.51248 86.5013333 109.8086 102.630756 137.964 146.454756 117.48592 153.678578 114.1108 153.676622 114.1108 165.327822 108.66788"/>
                <polygon id="Shape" fill="#86C1FF" points="85.5098667 117.825 85.5098667 193.12428 147.759111 164.03004 147.759111 122.23108 100.647822 144.2458"/>
                <polygon id="Shape" fill="#86C1FF" points="18.4128 122.22716 18.4128 164.03004 80.664 193.12428 80.664 117.83284 65.5299556 144.2458"/>
                <polygon id="Shape" fill="#4C7EF3" points="79.6784 44.85616 63.5470222 16.6988 0.849955556 45.99688 16.9832889 74.15228"/>
                <path d="M83.0869333,80.30668 C81.7493333,80.30668 80.6659556,81.39448 80.6659556,82.73316 L80.6659556,93.45436 C80.6679111,94.795 81.7532444,95.88084 83.0888889,95.88084 C84.4245333,95.88084 85.5079111,94.79304 85.5079111,93.45436 L85.5079111,82.73316 C85.5079111,81.39448 84.4245333,80.30668 83.0869333,80.30668 Z" id="Shape" fill="#FFFFFF"/>
                <path d="M83.0869333,74.43648 C84.4245333,74.43648 85.5059556,73.35064 85.5059556,72.01 L85.5059556,61.28684 C85.5059556,59.9462 84.4206222,58.86036 83.0849778,58.86036 C81.7473778,58.86036 80.6659556,59.9462 80.6659556,61.28684 L80.6659556,72.01 C80.6659556,73.35064 81.7493333,74.43648 83.0869333,74.43648 Z" id="Shape" fill="#FFFFFF"/>
                <path d="M83.0869333,54.8345218 C84.4245333,54.8345218 85.5059556,53.7486818 85.5059556,52.4080418 L85.5059556,41.6848818 C85.5059556,40.3442418 84.4206222,39.2584018 83.0849778,39.2584018 C81.7473778,39.2584018 80.6659556,40.3442418 80.6659556,41.6848818 L80.6659556,52.4080418 C80.6659556,53.7486818 81.7493333,54.8345218 83.0869333,54.8345218 Z" id="Shape" fill="#FFFFFF"/>
                <path d="M83.0869333,35.2345218 C84.4245333,35.2345218 85.5059556,34.1486818 85.5059556,32.8080418 L85.5059556,22.0848818 C85.5059556,20.7442418 84.4206222,19.6584018 83.0849778,19.6584018 C81.7473778,19.6584018 80.6659556,20.7442418 80.6659556,22.0848818 L80.6659556,32.8080418 C80.6659556,34.1486818 81.7493333,35.2345218 83.0869333,35.2345218 Z" id="Shape" fill="#FFFFFF"/>
                <path d="M83.0869333,15.6345218 C84.4245333,15.6345218 85.5059556,14.5486818 85.5059556,13.2080418 L85.5059556,2.48488179 C85.5059556,1.14424179 84.4206222,0.0584017944 83.0849778,0.0584017944 C81.7473778,0.0584017944 80.6659556,1.14424179 80.6659556,2.48488179 L80.6659556,13.2080418 C80.6659556,14.5486818 81.7493333,15.6345218 83.0869333,15.6345218 Z" id="Shape" fill="#FFFFFF"/>
                <polygon id="Shape" fill="#4C7EF3" points="63.5470222 137.964 79.6764444 109.81252 16.9832889 80.51444 0.849955556 108.66788 16.5276444 115.99436 18.4128 116.87636"/>
            </g>
        </g>
        <path d="M246.964844,309.798828 L244.960938,318.946289 L241.064453,318.946289 L243.810547,309.798828 L246.964844,309.798828 Z M241.398438,309.798828 L239.542969,318.946289 L235.479492,318.946289 L238.448242,309.798828 L241.398438,309.798828 Z M260.454102,337.371094 C257.17609,337.371094 254.238294,336.616544 251.640625,335.107422 L252.865234,331.118164 C254.028001,331.761396 255.292799,332.280922 256.659668,332.676758 C258.026537,333.072593 259.359369,333.270508 260.658203,333.270508 C262.253914,333.270508 263.459957,332.92725 264.276367,332.240723 C265.092778,331.554196 265.500977,330.567715 265.500977,329.28125 C265.500977,327.57421 264.362967,326.392907 262.086914,325.737305 C261.926106,325.687825 261.474613,325.554851 260.732422,325.338379 C259.990231,325.121906 259.294437,324.911622 258.64502,324.70752 C257.995602,324.503417 257.528647,324.345704 257.244141,324.234375 C253.595034,322.94791 251.770508,320.548195 251.770508,317.035156 C251.770508,314.573555 252.645662,312.674811 254.395996,311.338867 C256.14633,310.002923 258.468736,309.334961 261.363281,309.334961 C264.641292,309.334961 267.467762,310.009108 269.842773,311.357422 L268.321289,315.03125 C265.896798,313.942703 263.645518,313.398438 261.567383,313.398438 C260.070631,313.398438 258.941898,313.661293 258.181152,314.187012 C257.420406,314.71273 257.0153,315.587885 256.96582,316.8125 C256.96582,318.321622 257.714185,319.305011 259.210938,319.762695 C259.507814,319.874024 260.237624,320.115233 261.400391,320.486328 C262.563157,320.857424 263.317707,321.098632 263.664062,321.209961 C266.150403,322.026371 267.928543,323.040684 268.998535,324.25293 C270.068527,325.465175 270.603516,327.153635 270.603516,329.318359 C270.603516,331.903659 269.68816,333.892083 267.857422,335.283691 C266.026684,336.6753 263.558935,337.371094 260.454102,337.371094 Z M282.738281,337.389648 C280.091133,337.389648 277.960457,336.727871 276.346191,335.404297 C274.731926,334.080723 273.924805,332.138685 273.924805,329.578125 L273.924805,316.608398 L278.804688,316.608398 L278.804688,329.392578 C278.804688,330.91407 279.123206,332.014971 279.760254,332.695312 C280.397301,333.375654 281.408522,333.71582 282.793945,333.71582 C284.154629,333.71582 285.147295,333.378747 285.771973,332.70459 C286.39665,332.030433 286.708984,330.92644 286.708984,329.392578 L286.708984,316.608398 L291.570312,316.608398 L291.570312,329.578125 C291.570312,332.126315 290.760099,334.06526 289.139648,335.39502 C287.519198,336.724779 285.38543,337.389648 282.738281,337.389648 Z M296.004883,337 L296.004883,316.608398 L299.919922,316.608398 L300.458008,319.1875 C302.536143,317.134104 304.843086,316.107422 307.378906,316.107422 C309.753918,316.107422 311.532058,316.790846 312.713379,318.157715 C313.8947,319.524584 314.485352,321.506823 314.485352,324.104492 L314.485352,337 L309.605469,337 L309.605469,324.698242 C309.593099,323.053052 309.327151,321.82227 308.807617,321.005859 C308.288083,320.189449 307.354173,319.78125 306.005859,319.78125 C304.954422,319.78125 303.99268,320.05029 303.120605,320.588379 C302.248531,321.126468 301.614585,321.803707 301.21875,322.620117 C300.983723,323.584966 300.866211,325.069326 300.866211,327.073242 L300.866211,337 L296.004883,337 Z M325.785156,337.371094 C322.779282,337.371094 320.373381,336.857753 318.567383,335.831055 L319.068359,332.175781 C319.88477,332.621096 320.923822,333.020018 322.185547,333.372559 C323.447272,333.725099 324.597651,333.901367 325.636719,333.901367 C326.712896,333.901367 327.550941,333.70036 328.150879,333.29834 C328.750817,332.89632 329.056966,332.305668 329.069336,331.526367 C329.069336,330.821286 328.787926,330.26465 328.225098,329.856445 C327.662269,329.44824 326.589201,328.941084 325.005859,328.334961 C324.461586,328.137043 324.10905,328.007162 323.948242,327.945312 C322.068024,327.215491 320.713546,326.402185 319.884766,325.505371 C319.055985,324.608557 318.641602,323.393237 318.641602,321.859375 C318.641602,320.003897 319.312656,318.581385 320.654785,317.591797 C321.996914,316.602209 323.867827,316.107422 326.267578,316.107422 C328.865247,316.107422 331.147451,316.596024 333.114258,317.573242 L331.908203,320.931641 C329.966136,320.028641 328.116871,319.577148 326.360352,319.577148 C325.383133,319.577148 324.619306,319.741047 324.068848,320.068848 C323.518389,320.396649 323.243164,320.894528 323.243164,321.5625 C323.243164,322.193363 323.509112,322.685057 324.041016,323.037598 C324.572919,323.390138 325.611971,323.850909 327.158203,324.419922 C327.207683,324.432292 327.368488,324.487955 327.640625,324.586914 C327.912762,324.685873 328.123046,324.766276 328.271484,324.828125 C330.139332,325.508467 331.512365,326.321773 332.390625,327.268066 C333.268885,328.21436 333.708008,329.448235 333.708008,330.969727 C333.695638,333.010752 333.002937,334.587885 331.629883,335.701172 C330.256829,336.814459 328.308606,337.371094 325.785156,337.371094 Z M337.548828,337 L337.548828,309.09375 L342.410156,308.77832 L342.410156,314.660156 C342.410156,314.944663 342.391602,315.733229 342.354492,317.025879 C342.317383,318.318529 342.298828,318.977213 342.298828,319.001953 C343.919279,317.072256 346.09634,316.107422 348.830078,316.107422 C351.106131,316.107422 352.871901,316.759922 354.127441,318.064941 C355.382982,319.369961 356.010742,321.37694 356.010742,324.085938 L356.010742,337 L351.149414,337 L351.149414,324.624023 C351.149414,322.954093 350.883466,321.729496 350.351562,320.950195 C349.819659,320.170895 348.916673,319.78125 347.642578,319.78125 C346.554031,319.78125 345.589197,320.056475 344.748047,320.606934 C343.906897,321.157392 343.276044,321.865556 342.855469,322.731445 C342.558592,323.869472 342.410156,325.353832 342.410156,327.18457 L342.410156,337 L337.548828,337 Z M360.90918,337 L360.90918,316.608398 L365.770508,316.608398 L365.770508,337 L360.90918,337 Z M360.90918,313.639648 L360.90918,309.483398 L365.789062,309.483398 L365.789062,313.639648 L360.90918,313.639648 Z M370.835938,337 L370.835938,316.608398 L374.750977,316.608398 L375.289062,319.1875 C377.367198,317.134104 379.674141,316.107422 382.209961,316.107422 C384.584973,316.107422 386.363113,316.790846 387.544434,318.157715 C388.725755,319.524584 389.316406,321.506823 389.316406,324.104492 L389.316406,337 L384.436523,337 L384.436523,324.698242 C384.424154,323.053052 384.158206,321.82227 383.638672,321.005859 C383.119138,320.189449 382.185228,319.78125 380.836914,319.78125 C379.785477,319.78125 378.823735,320.05029 377.95166,320.588379 C377.079585,321.126468 376.44564,321.803707 376.049805,322.620117 C375.814777,323.584966 375.697266,325.069326 375.697266,327.073242 L375.697266,337 L370.835938,337 Z M403.529297,337.389648 C400.251286,337.389648 397.700042,336.446461 395.875488,334.560059 C394.050935,332.673656 393.138672,330.066748 393.138672,326.739258 C393.138672,323.498356 393.998364,320.91928 395.717773,319.001953 C397.437183,317.084626 399.781235,316.119792 402.75,316.107422 C405.557957,316.107422 407.738111,316.985668 409.290527,318.742188 C410.842944,320.498707 411.619141,322.830389 411.619141,325.737305 C411.619141,325.947592 411.616048,326.287758 411.609863,326.757812 C411.603678,327.227867 411.600586,327.574218 411.600586,327.796875 L398.037109,327.796875 C398.086589,329.701832 398.609207,331.176915 399.60498,332.222168 C400.600754,333.267421 401.970694,333.790039 403.714844,333.790039 C405.941417,333.790039 408.08137,333.208665 410.134766,332.045898 L410.821289,335.49707 C408.780263,336.758795 406.349623,337.389648 403.529297,337.389648 Z M398.129883,324.735352 L407.036133,324.735352 C407.036133,323.077791 406.658858,321.803715 405.904297,320.913086 C405.149736,320.022456 404.104499,319.577148 402.768555,319.577148 C401.519199,319.577148 400.464685,320.010087 399.60498,320.875977 C398.745276,321.741866 398.253581,323.028312 398.129883,324.735352 Z M416.369141,318.946289 L418.373047,309.798828 L422.269531,309.798828 L419.523438,318.946289 L416.369141,318.946289 Z M421.935547,318.946289 L423.791016,309.798828 L427.854492,309.798828 L424.885742,318.946289 L421.935547,318.946289 Z" id="“Sunshine”" fill="#F5A623"/>
        <path d="M588.710938,336.981445 L588.710938,314.363281 C588.53776,314.47461 587.736824,314.830238 586.308105,315.430176 C584.879387,316.030114 584.072267,316.354817 583.886719,316.404297 L583.886719,312.693359 C584.183595,312.557291 585.12369,312.090336 586.707031,311.29248 C588.290372,310.494625 589.162434,310.04004 589.323242,309.928711 L593.405273,309.928711 L593.405273,336.981445 L588.710938,336.981445 Z M607.859375,333.530273 C608.848963,333.530273 609.693193,333.245771 610.39209,332.676758 C611.090987,332.107745 611.622882,331.319178 611.987793,330.311035 C612.352704,329.302892 612.615559,328.226731 612.776367,327.08252 C612.937175,325.938308 613.017578,324.667325 613.017578,323.269531 C613.017578,316.565071 611.298194,313.212891 607.859375,313.212891 C604.445295,313.212891 602.713542,316.540331 602.664062,323.195312 C602.664062,324.605476 602.744465,325.885736 602.905273,327.036133 C603.066082,328.186529 603.332029,329.271968 603.703125,330.29248 C604.074221,331.312993 604.612301,332.107745 605.317383,332.676758 C606.022464,333.245771 606.869787,333.530273 607.859375,333.530273 Z M607.859375,337.389648 C606.387362,337.389648 605.063808,337.139163 603.888672,336.638184 C602.713536,336.137205 601.742517,335.456873 600.975586,334.597168 C600.208655,333.737463 599.568525,332.707688 599.055176,331.507812 C598.541827,330.307937 598.176922,329.040046 597.960449,327.704102 C597.743977,326.368157 597.635742,324.939461 597.635742,323.417969 C597.635742,321.871737 597.747069,320.421393 597.969727,319.066895 C598.192384,317.712396 598.563474,316.432135 599.083008,315.226074 C599.602542,314.020014 600.248857,312.990239 601.021973,312.136719 C601.795089,311.283199 602.763015,310.60596 603.925781,310.10498 C605.088547,309.604001 606.399732,309.353516 607.859375,309.353516 C609.319018,309.353516 610.630203,309.604001 611.792969,310.10498 C612.955735,310.60596 613.920569,311.286291 614.6875,312.145996 C615.454431,313.005701 616.094561,314.038568 616.60791,315.244629 C617.121259,316.45069 617.489257,317.727858 617.711914,319.076172 C617.934571,320.424486 618.045898,321.871737 618.045898,323.417969 C618.045898,324.939461 617.937664,326.368157 617.721191,327.704102 C617.504719,329.040046 617.142906,330.311029 616.635742,331.51709 C616.128578,332.723151 615.49154,333.752925 614.724609,334.606445 C613.957678,335.459965 612.989752,336.137205 611.820801,336.638184 C610.65185,337.139163 609.331388,337.389648 607.859375,337.389648 Z M631.90625,333.530273 C632.895838,333.530273 633.740068,333.245771 634.438965,332.676758 C635.137862,332.107745 635.669757,331.319178 636.034668,330.311035 C636.399579,329.302892 636.662434,328.226731 636.823242,327.08252 C636.98405,325.938308 637.064453,324.667325 637.064453,323.269531 C637.064453,316.565071 635.345069,313.212891 631.90625,313.212891 C628.49217,313.212891 626.760417,316.540331 626.710938,323.195312 C626.710938,324.605476 626.79134,325.885736 626.952148,327.036133 C627.112957,328.186529 627.378904,329.271968 627.75,330.29248 C628.121096,331.312993 628.659176,332.107745 629.364258,332.676758 C630.069339,333.245771 630.916662,333.530273 631.90625,333.530273 Z M631.90625,337.389648 C630.434237,337.389648 629.110683,337.139163 627.935547,336.638184 C626.760411,336.137205 625.789392,335.456873 625.022461,334.597168 C624.25553,333.737463 623.6154,332.707688 623.102051,331.507812 C622.588702,330.307937 622.223797,329.040046 622.007324,327.704102 C621.790852,326.368157 621.682617,324.939461 621.682617,323.417969 C621.682617,321.871737 621.793944,320.421393 622.016602,319.066895 C622.239259,317.712396 622.610349,316.432135 623.129883,315.226074 C623.649417,314.020014 624.295732,312.990239 625.068848,312.136719 C625.841964,311.283199 626.80989,310.60596 627.972656,310.10498 C629.135422,309.604001 630.446607,309.353516 631.90625,309.353516 C633.365893,309.353516 634.677078,309.604001 635.839844,310.10498 C637.00261,310.60596 637.967444,311.286291 638.734375,312.145996 C639.501306,313.005701 640.141436,314.038568 640.654785,315.244629 C641.168134,316.45069 641.536132,317.727858 641.758789,319.076172 C641.981446,320.424486 642.092773,321.871737 642.092773,323.417969 C642.092773,324.939461 641.984539,326.368157 641.768066,327.704102 C641.551594,329.040046 641.189781,330.311029 640.682617,331.51709 C640.175453,332.723151 639.538415,333.752925 638.771484,334.606445 C638.004553,335.459965 637.036627,336.137205 635.867676,336.638184 C634.698725,337.139163 633.378263,337.389648 631.90625,337.389648 Z" id="100" fill="#63A318"/>
        <path d="M863.236816,337.27832 C861.851393,337.27832 860.697921,337.114422 859.776367,336.786621 C858.854813,336.45882 858.13428,335.942386 857.614746,335.237305 C857.095212,334.532223 856.727215,333.700363 856.510742,332.741699 C856.29427,331.783036 856.186035,330.59864 856.186035,329.188477 L856.186035,319.558594 L852.846191,319.558594 L853.031738,316.923828 L856.52002,316.608398 L858.078613,311.079102 L861.047363,311.060547 L861.047363,316.608398 L866.112793,316.608398 L866.112793,319.558594 L861.047363,319.558594 L861.047363,329.28125 C861.047363,330.827482 861.270017,331.928382 861.715332,332.583984 C862.160647,333.239587 862.98323,333.567383 864.183105,333.567383 C864.888187,333.567383 865.642737,333.505534 866.446777,333.381836 L866.57666,336.870117 C866.55192,336.870117 866.400392,336.897949 866.12207,336.953613 C865.843749,337.009278 865.577801,337.058756 865.324219,337.102051 C865.070637,337.145345 864.745933,337.185547 864.350098,337.222656 C863.954262,337.259766 863.583172,337.27832 863.236816,337.27832 Z M870.009277,337 L870.009277,316.608398 L874.091309,316.608398 L874.722168,319.725586 C876.058112,317.585601 877.993965,316.515625 880.529785,316.515625 C881.061689,316.515625 881.494627,316.540364 881.828613,316.589844 L881.754395,320.65332 C881.2596,320.579101 880.746259,320.541992 880.214355,320.541992 C878.420727,320.541992 877.08171,321.018224 876.197266,321.970703 C875.312821,322.923182 874.870605,324.246736 874.870605,325.941406 L874.870605,337 L870.009277,337 Z M893.109863,337.389648 C890.462715,337.389648 888.332039,336.727871 886.717773,335.404297 C885.103508,334.080723 884.296387,332.138685 884.296387,329.578125 L884.296387,316.608398 L889.17627,316.608398 L889.17627,329.392578 C889.17627,330.91407 889.494788,332.014971 890.131836,332.695312 C890.768883,333.375654 891.780104,333.71582 893.165527,333.71582 C894.526211,333.71582 895.518877,333.378747 896.143555,332.70459 C896.768232,332.030433 897.080566,330.92644 897.080566,329.392578 L897.080566,316.608398 L901.941895,316.608398 L901.941895,329.578125 C901.941895,332.126315 901.131681,334.06526 899.51123,335.39502 C897.89078,336.724779 895.757012,337.389648 893.109863,337.389648 Z M915.802246,337.389648 C912.524235,337.389648 909.972991,336.446461 908.148438,334.560059 C906.323884,332.673656 905.411621,330.066748 905.411621,326.739258 C905.411621,323.498356 906.271313,320.91928 907.990723,319.001953 C909.710132,317.084626 912.054184,316.119792 915.022949,316.107422 C917.830906,316.107422 920.01106,316.985668 921.563477,318.742188 C923.115893,320.498707 923.89209,322.830389 923.89209,325.737305 C923.89209,325.947592 923.888997,326.287758 923.882812,326.757812 C923.876628,327.227867 923.873535,327.574218 923.873535,327.796875 L910.310059,327.796875 C910.359538,329.701832 910.882156,331.176915 911.87793,332.222168 C912.873703,333.267421 914.243644,333.790039 915.987793,333.790039 C918.214367,333.790039 920.354319,333.208665 922.407715,332.045898 L923.094238,335.49707 C921.053212,336.758795 918.622573,337.389648 915.802246,337.389648 Z M910.402832,324.735352 L919.309082,324.735352 C919.309082,323.077791 918.931807,321.803715 918.177246,320.913086 C917.422685,320.022456 916.377448,319.577148 915.041504,319.577148 C913.792149,319.577148 912.737635,320.010087 911.87793,320.875977 C911.018225,321.741866 910.526531,323.028312 910.402832,324.735352 Z" id="true" fill="#4C7EF3"/>
    </g>
</svg>